<svg xmlns="http://www.w3.org/2000/svg" xmlns:xlink="http://www.w3.org/1999/xlink" xml:space="preserve" version="1.1" style="shape-rendering:geometricPrecision;text-rendering:geometricPrecision;image-rendering:optimizeQuality;" viewBox="0 0 828 860" x="0px" y="0px" fill-rule="evenodd" clip-rule="evenodd"><defs><style type="text/css">

    .fil0 {fill:black}

  </style></defs><g><path class="fil0" d="M710 454c107,38 168,-125 65,-156 16,-50 1,-82 -53,-96 -6,-56 -30,-89 -92,-69 -30,-71 -70,-86 -122,-34 -42,-55 -82,-58 -119,-2 -43,-34 -74,-29 -92,13l-53 0 0 0c5,-13 7,-26 6,-38 3,0 6,0 9,0 31,-4 54,-22 52,-42 -2,-20 -29,-33 -59,-29 -17,1 -32,8 -41,17 -37,-15 -92,-4 -140,32 -62,47 -89,117 -59,156 25,34 82,35 136,8l0 0c-25,56 -3,81 35,95 -30,30 -25,54 9,73 -43,26 -9,77 48,86 -2,23 0,41 5,54l0 142c0,32 49,32 49,0l0 -115c16,-1 36,-7 58,-17 10,40 47,56 79,16 24,41 51,57 86,6l74 -4 -47 101c-14,29 30,49 43,21l61 -128c46,-14 69,-42 62,-90zm-594 -387c-7,0 -12,5 -12,12 0,7 5,12 12,12 6,0 12,-5 12,-12 0,-7 -6,-12 -12,-12z"/><path class="fil0" d="M116 72c-3,0 -6,3 -6,6 0,3 3,6 6,6 3,0 6,-3 6,-6 0,-3 -3,-6 -6,-6z"/></g><text x="0" y="703" fill="#000000" font-size="5px" font-weight="bold" font-family="'Helvetica Neue', Helvetica, Arial-Unicode, Arial, Sans-serif">Created by Andy Mc</text><text x="0" y="708" fill="#000000" font-size="5px" font-weight="bold" font-family="'Helvetica Neue', Helvetica, Arial-Unicode, Arial, Sans-serif">from the Noun Project</text></svg>
