<svg xmlns="http://www.w3.org/2000/svg" data-name="Layer 1" viewBox="0 0 100 125" x="0px" y="0px">
  <title>44</title>
  <g data-name="Group"><path
    fill="#22d73a"
    data-name="Path"
    d="M82.6,31.9c-2-1.6-4.3-3.5-8.6-3.5s-6.6,1.8-8.6,3.5-3.7,3-7.4,3-5.5-1.5-7.4-3-4.3-3.5-8.6-3.5-6.6,1.8-8.6,3.5-3.7,3-7.4,3-5.5-1.5-7.4-3-4.3-3.5-8.6-3.5H9v2h1c3.6,0,5.5,1.5,7.4,3s4.3,3.5,8.6,3.5,6.6-1.8,8.6-3.5,3.7-3,7.4-3,5.5,1.5,7.4,3,4.3,3.5,8.6,3.5,6.6-1.8,8.6-3.5,3.7-3,7.4-3,5.5,1.5,7.4,3,4.3,3.5,8.6,3.5h1v-2H90C86.4,34.9,84.6,33.5,82.6,31.9Z"/><path
    fill="#22d73a"
    data-name="Path"
    d="M82.6,49.2c-2-1.6-4.3-3.5-8.6-3.5s-6.6,1.8-8.6,3.5-3.7,3-7.4,3-5.5-1.5-7.4-3-4.3-3.5-8.6-3.5-6.6,1.8-8.6,3.5-3.7,3-7.4,3-5.5-1.5-7.4-3-4.3-3.5-8.6-3.5H9v2h1c3.6,0,5.5,1.5,7.4,3s4.3,3.5,8.6,3.5,6.6-1.8,8.6-3.5,3.7-3,7.4-3,5.5,1.5,7.4,3,4.3,3.5,8.6,3.5,6.6-1.8,8.6-3.5,3.7-3,7.4-3,5.5,1.5,7.4,3,4.3,3.5,8.6,3.5h1v-2H90C86.4,52.2,84.6,50.8,82.6,49.2Z"/><path
    fill="#22d73a"
    data-name="Path"
    d="M82.6,66.5c-2-1.6-4.3-3.5-8.6-3.5s-6.6,1.8-8.6,3.5-3.7,3-7.4,3-5.5-1.5-7.4-3-4.3-3.5-8.6-3.5-6.6,1.8-8.6,3.5-3.7,3-7.4,3-5.5-1.5-7.4-3-4.3-3.5-8.6-3.5H9v2h1c3.6,0,5.5,1.5,7.4,3s4.3,3.5,8.6,3.5,6.6-1.8,8.6-3.5,3.7-3,7.4-3,5.5,1.5,7.4,3,4.3,3.5,8.6,3.5,6.6-1.8,8.6-3.5,3.7-3,7.4-3,5.5,1.5,7.4,3,4.3,3.5,8.6,3.5h1v-2H90C86.4,69.5,84.6,68.1,82.6,66.5Z"/></g>

</svg>
