<svg xmlns="http://www.w3.org/2000/svg" xmlns:xlink="http://www.w3.org/1999/xlink" version="1.1" x="0px" y="0px" viewBox="0 0 100 125" enable-background="new 0 0 100 100" xml:space="preserve">
  <g><path
    fill="#f92c07"
    d="M94.5,43.2l-0.1,0c-0.7-0.2-1.4-0.3-2-0.7c-0.4-0.2-0.6-0.5-0.9-0.8c-0.6-0.6-1.3-1.3-2.7-1.3c-1.4-0.1-2.6,0.7-3.5,1.3   c-0.3,0.2-0.7,0.4-1,0.6c-2.2,1.1-4.9,1.3-7,0.5c-1.1-0.4-1.9-1.1-2.6-1.7c-1.3-1.2-2.7-2.4-6.2-1.4c-1.7,0.5-3.1,1.4-4.6,2.2   c-2.7,1.6-5,2.9-7.9,1.8c-0.9-0.3-1.6-1-2.3-1.7C53,41.3,52,40.5,50.8,40c-1.7-0.6-3.2-0.4-4.6,0.1l-2.9-2.9L39,41.5l-0.7-0.7   l4.2-4.2l-6.4-6.4L32,34.4l-0.7-0.7l4.2-4.2l-6.4-6.4l-4.2,4.2L14.3,16.7l-3.1,3.1l-1.5,15l7.9,7.9c-0.8,0.4-1.6,0.9-2.6,1.1   c-1,0.2-3-0.3-4.8-0.7c-1.7-0.4-3.3-0.8-4.5-0.8c-0.6,0-1,0.5-1,1c0,0.6,0.5,1,1,1c1,0,2.4,0.4,3.9,0.7c2.1,0.5,4.2,1.1,5.8,0.8   c1.4-0.3,2.6-0.9,3.6-1.6l39.2,39.2l18.3-18.5l0.7-0.7l2.8-2.8l-0.7-0.7l4.2-4.2L72.3,45L68,49.2l-2.8-2.8L61,50.7l3.5,3.5   l-6.4,6.4l-5.7-5.7l4.2-4.2l-6.4-6.4l-4.2,4.2l-0.7-0.7l4.2-4.2l-1.8-1.8c0.7-0.2,1.5-0.1,2.3,0.2c0.9,0.3,1.6,1,2.4,1.7   c0.9,0.8,1.8,1.6,3,2.1c3.8,1.5,6.8-0.3,9.6-1.9c1.3-0.8,2.7-1.6,4.1-2c2.4-0.7,3-0.1,4.2,1c0.8,0.7,1.7,1.5,3.2,2.1   c2.6,1,5.8,0.8,8.6-0.6c0.4-0.2,0.8-0.5,1.1-0.7c0.8-0.5,1.5-1,2.3-1c0.7,0,0.9,0.3,1.4,0.8c0.3,0.3,0.7,0.7,1.3,1.1   c0.8,0.5,1.8,0.7,2.5,0.9l0.1,0c0.5,0.1,1.1-0.2,1.2-0.7C95.3,43.9,95,43.4,94.5,43.2z M72.3,47.8l8.5,8.5l-2.8,2.8l-8.5-8.5   L72.3,47.8z M43.3,40l1,1c-0.3,0.2-0.6,0.3-0.8,0.5l-0.5,0.3c-0.7,0.4-1.5,0.8-2.3,1.2l-0.2-0.2L43.3,40z M33.4,35.8l2.8-2.8   l3.5,3.5l-2.8,2.8l-1.7-1.7L33.4,35.8z M29.2,25.9l3.5,3.5l-2.8,2.8l-3.5-3.5L29.2,25.9z M13.1,20.7l1.2-1.2l9.2,9.2l0,0l6.4,6.4   l0,0l4.2,4.2l2.9,2.9l0,0l0.7,0.7l0,0l1,1c-1.6,0.5-3.2,0.7-4.9,0.3c-1.2-0.3-2.3-1-3.5-1.7c-1-0.6-2-1.2-3.1-1.7   c-3.6-1.4-5.8-0.4-7.8,0.8L11.8,34L13.1,20.7z M65.2,49.2l12,12l-1.4,1.4l-12-12L65.2,49.2z M50.4,47.1l3.5,3.5l-2.8,2.8l-3.5-3.5   L50.4,47.1z M44.7,49.9L44.7,49.9l6.4,6.4v0l7.1,7.1l7.8-7.8l6.6,6.6l1.9,1.9L58.2,80.5L20.9,43.1c1.6-0.9,3.1-1.4,5.6-0.4   c0.9,0.3,1.8,0.9,2.7,1.5c1.3,0.8,2.6,1.6,4.1,2c0.8,0.2,1.6,0.3,2.4,0.3c1.6,0,3.1-0.4,4.6-1l3.8,3.8v0L44.7,49.9z M46.8,43.6   L44,46.4l-1.9-1.9c0.6-0.3,1.2-0.6,1.8-1l0.5-0.3c0.5-0.3,0.9-0.5,1.3-0.7L46.8,43.6z"/></g>

</svg>
