<svg
  xmlns:dc="http://purl.org/dc/elements/1.1/"
  xmlns:cc="http://creativecommons.org/ns#"
  xmlns:rdf="http://www.w3.org/1999/02/22-rdf-syntax-ns#"
  xmlns:svg="http://www.w3.org/2000/svg"
  xmlns="http://www.w3.org/2000/svg"
  xmlns:sodipodi="http://sodipodi.sourceforge.net/DTD/sodipodi-0.dtd"
  xmlns:inkscape="http://www.inkscape.org/namespaces/inkscape"
  version="1.1"
  x="0px"
  y="0px"
  viewBox="0 0 100 125">
  <g transform="translate(0,-952.36218)"><path
    style="text-indent:0;text-transform:none;direction:ltr;block-progression:tb;baseline-shift:baseline;color:#8efe80;enable-background:accumulate;"
    d="m 8.0000003,960.36215 0,2 0,24 3.9999997,0 0,-22 22,0 0,-4 -24,0 -1.9999997,0 z m 57.9999997,0 0,4 22,0 0,22 4,0 0,-24 0,-2 -2,0 -24,0 z m -18,24 0,15.99995 -16,0 0,4 16,0 0,16.0001 4,0 0,-16.0001 16,0 0,-4 -16,0 0,-15.99995 -4,0 z m -39.9999998,34.00005 0,24 0,2 1.9999998,0 24,0 0,-4 -22,0 0,-22 -3.9999998,0 z m 79.9999998,0 0,22 -22,0 0,4 24,0 2,0 0,-2 0,-24 -4,0 z"
    fill="#8efe80"
    fill-opacity="1"
    stroke="none"
    marker="none"
    visibility="visible"
    display="inline"
    overflow="visible"/></g>

</svg>
