<svg xmlns="http://www.w3.org/2000/svg" xmlns:xlink="http://www.w3.org/1999/xlink" version="1.1" x="0px" y="0px" viewBox="0 0 100 125" enable-background="new 0 0 100 100" xml:space="preserve"><path d="M11.956,24.852c0.219,0.029,0.454,0.06,0.706,0.092c0.248,0.055,0.512,0.113,0.792,0.175  c1.117,0.258,2.431,0.765,3.832,1.594c1.404,0.805,2.955,1.92,4.962,2.518c1.982,0.636,4.305,0.755,6.704,0.495  c1.212-0.146,2.453-0.443,3.64-0.977c1.194-0.515,2.314-1.237,3.469-1.902c1.154-0.667,2.392-1.229,3.734-1.547  c1.334-0.339,2.764-0.414,4.191-0.38c1.462,0.024,2.879,0.242,4.277,0.729c1.395,0.472,2.667,1.276,3.994,2.061  c1.316,0.799,2.741,1.468,4.227,1.811c1.481,0.366,2.979,0.441,4.436,0.386c1.436-0.036,2.906-0.263,4.225-0.735  c1.336-0.458,2.531-1.155,3.65-1.839c1.121-0.685,2.225-1.305,3.377-1.716c1.149-0.421,2.332-0.602,3.474-0.719  c2.291-0.161,4.477,0.055,6.308,0.692c1.836,0.663,3.305,1.691,4.688,2.434c1.376,0.763,2.68,1.197,3.762,1.405  c0.538,0.129,1.026,0.171,1.447,0.218c0.42,0.06,0.778,0.062,1.066,0.069c0.577,0.017,0.88,0.025,0.88,0.025  s-0.307-0.017-0.892-0.048c-0.293-0.014-0.655-0.028-1.078-0.099c-0.425-0.055-0.915-0.116-1.454-0.257  c-1.085-0.24-2.374-0.712-3.737-1.509c-1.369-0.772-2.842-1.855-4.743-2.537c-1.907-0.667-4.122-0.914-6.489-0.738  c-1.181,0.104-2.399,0.33-3.597,0.764c-1.199,0.429-2.336,1.092-3.47,1.765c-1.135,0.673-2.314,1.315-3.617,1.715  c-1.313,0.397-2.66,0.614-4.119,0.612c-1.411,0.007-2.877-0.085-4.288-0.467c-1.419-0.37-2.744-1.061-4.054-1.85  c-1.303-0.792-2.657-1.58-4.123-2.033c-1.447-0.46-2.994-0.656-4.429-0.659c-1.482,0.004-2.926,0.124-4.309,0.498  c-1.382,0.363-2.642,1.004-3.792,1.695c-1.153,0.69-2.246,1.386-3.4,1.873c-1.146,0.492-2.339,0.805-3.506,0.926  c-2.357,0.276-4.593,0.14-6.523-0.459c-1.947-0.564-3.473-1.647-4.894-2.411c-1.414-0.794-2.743-1.265-3.858-1.49  c-0.556-0.128-1.057-0.191-1.493-0.228c-0.434-0.059-0.805-0.07-1.106-0.072c-0.601-0.014-0.917-0.021-0.917-0.021  s0.32,0.016,0.929,0.044C11.144,24.759,11.52,24.783,11.956,24.852z"/><path d="M85.57,75.279c-0.425-0.055-0.915-0.116-1.454-0.258c-1.085-0.239-2.375-0.712-3.737-1.509  c-1.369-0.772-2.843-1.856-4.743-2.537c-1.907-0.667-4.122-0.914-6.489-0.738c-1.181,0.104-2.4,0.33-3.597,0.764  c-1.2,0.429-2.336,1.092-3.47,1.765c-1.135,0.674-2.314,1.315-3.617,1.715c-1.313,0.397-2.66,0.614-4.119,0.612  c-1.411,0.008-2.878-0.085-4.289-0.467c-1.419-0.37-2.744-1.061-4.053-1.85c-1.304-0.792-2.657-1.581-4.123-2.034  c-1.446-0.461-2.994-0.656-4.429-0.659c-1.482,0.004-2.927,0.124-4.309,0.497c-1.382,0.363-2.642,1.005-3.792,1.695  c-1.153,0.69-2.246,1.387-3.4,1.873c-1.146,0.491-2.339,0.805-3.505,0.926c-2.358,0.276-4.593,0.141-6.524-0.459  c-1.947-0.563-3.473-1.647-4.894-2.411c-1.413-0.794-2.743-1.265-3.858-1.49c-0.556-0.129-1.057-0.191-1.493-0.229  c-0.434-0.059-0.805-0.07-1.106-0.072c-0.601-0.013-0.917-0.021-0.917-0.021s0.32,0.016,0.929,0.044  c0.306,0.008,0.681,0.032,1.117,0.102c0.219,0.028,0.454,0.059,0.706,0.092c0.248,0.055,0.512,0.113,0.792,0.175  c1.116,0.258,2.431,0.766,3.832,1.594c1.403,0.805,2.954,1.92,4.961,2.519c1.982,0.636,4.305,0.755,6.704,0.494  c1.212-0.146,2.453-0.443,3.64-0.978c1.194-0.515,2.314-1.237,3.469-1.901c1.154-0.667,2.392-1.229,3.734-1.548  c1.335-0.339,2.765-0.413,4.191-0.38c1.462,0.023,2.879,0.241,4.277,0.729c1.395,0.472,2.667,1.277,3.994,2.062  c1.317,0.8,2.742,1.469,4.227,1.811c1.481,0.366,2.98,0.441,4.437,0.386c1.436-0.036,2.906-0.264,4.224-0.736  c1.336-0.457,2.532-1.155,3.651-1.839c1.121-0.685,2.225-1.305,3.377-1.716c1.149-0.421,2.331-0.602,3.474-0.719  c2.291-0.161,4.476,0.055,6.308,0.692c1.836,0.663,3.305,1.691,4.688,2.435c1.377,0.762,2.681,1.197,3.763,1.404  c0.538,0.129,1.026,0.171,1.447,0.218c0.42,0.061,0.778,0.063,1.066,0.07c0.577,0.017,0.88,0.024,0.88,0.024  s-0.307-0.017-0.892-0.048C86.355,75.364,85.993,75.35,85.57,75.279z"/><path d="M95.453,60.149c-0.293-0.014-0.655-0.028-1.078-0.099c-0.425-0.055-0.915-0.116-1.454-0.258  c-1.085-0.239-2.374-0.712-3.737-1.51c-1.369-0.772-2.842-1.855-4.742-2.536c-1.908-0.667-4.123-0.914-6.49-0.738  c-1.181,0.104-2.399,0.33-3.596,0.764c-1.2,0.429-2.337,1.092-3.471,1.765c-1.135,0.674-2.314,1.315-3.617,1.716  c-1.312,0.396-2.66,0.613-4.119,0.611c-1.411,0.008-2.877-0.085-4.288-0.467c-1.419-0.37-2.744-1.062-4.053-1.85  c-1.304-0.792-2.657-1.581-4.123-2.034c-1.447-0.461-2.994-0.656-4.429-0.659c-1.482,0.004-2.927,0.124-4.309,0.497  c-1.383,0.364-2.643,1.005-3.792,1.695c-1.152,0.69-2.246,1.387-3.4,1.873c-1.146,0.491-2.339,0.805-3.505,0.926  c-2.357,0.276-4.593,0.141-6.524-0.459c-1.946-0.563-3.472-1.647-4.894-2.411c-1.414-0.794-2.743-1.265-3.858-1.49  c-0.556-0.129-1.057-0.191-1.493-0.229c-0.434-0.059-0.805-0.07-1.106-0.072c-0.601-0.013-0.917-0.021-0.917-0.021  s0.32,0.016,0.929,0.044c0.306,0.008,0.681,0.032,1.117,0.102c0.219,0.028,0.454,0.059,0.706,0.092  c0.248,0.055,0.512,0.113,0.792,0.175c1.117,0.258,2.431,0.766,3.832,1.595c1.404,0.805,2.955,1.919,4.962,2.518  c1.982,0.636,4.305,0.755,6.704,0.494c1.212-0.146,2.453-0.443,3.64-0.978c1.194-0.515,2.314-1.237,3.469-1.901  c1.154-0.667,2.392-1.229,3.734-1.548c1.335-0.339,2.765-0.413,4.191-0.38c1.462,0.023,2.879,0.241,4.277,0.729  c1.395,0.472,2.668,1.276,3.994,2.062c1.316,0.8,2.741,1.469,4.227,1.811c1.481,0.366,2.979,0.441,4.437,0.386  c1.436-0.036,2.905-0.264,4.224-0.735c1.336-0.457,2.531-1.155,3.65-1.839c1.121-0.685,2.225-1.305,3.377-1.717  c1.15-0.421,2.332-0.602,3.474-0.719c2.291-0.161,4.477,0.055,6.308,0.691c1.836,0.663,3.305,1.692,4.688,2.435  c1.376,0.763,2.68,1.197,3.762,1.405c0.538,0.129,1.026,0.171,1.447,0.218c0.42,0.061,0.778,0.063,1.066,0.07  c0.577,0.017,0.88,0.024,0.88,0.024S96.038,60.181,95.453,60.149z"/><path d="M5.699,40.081c0.219,0.029,0.454,0.06,0.706,0.092c0.248,0.055,0.512,0.113,0.792,0.175  c1.116,0.258,2.431,0.765,3.832,1.594c1.403,0.805,2.954,1.92,4.961,2.518c1.982,0.636,4.305,0.755,6.704,0.495  c1.212-0.147,2.453-0.443,3.64-0.978c1.194-0.515,2.314-1.237,3.469-1.902c1.154-0.667,2.392-1.229,3.734-1.547  c1.335-0.339,2.765-0.414,4.191-0.38c1.462,0.024,2.879,0.242,4.277,0.73c1.395,0.472,2.667,1.276,3.994,2.061  c1.317,0.8,2.742,1.468,4.227,1.811c1.481,0.366,2.98,0.441,4.437,0.386c1.436-0.036,2.906-0.263,4.224-0.736  c1.336-0.457,2.532-1.155,3.651-1.839c1.121-0.685,2.225-1.305,3.377-1.716c1.149-0.421,2.331-0.602,3.474-0.719  c2.291-0.161,4.476,0.055,6.308,0.692c1.836,0.663,3.305,1.692,4.688,2.435c1.377,0.763,2.681,1.197,3.763,1.405  c0.538,0.129,1.026,0.171,1.447,0.218c0.42,0.06,0.778,0.062,1.066,0.069c0.577,0.017,0.88,0.025,0.88,0.025  s-0.307-0.017-0.892-0.048c-0.293-0.014-0.655-0.028-1.078-0.099c-0.425-0.055-0.915-0.116-1.454-0.257  c-1.085-0.24-2.375-0.712-3.737-1.509c-1.369-0.772-2.843-1.855-4.743-2.537c-1.907-0.667-4.122-0.914-6.489-0.739  c-1.181,0.104-2.4,0.33-3.597,0.764c-1.2,0.428-2.336,1.092-3.47,1.765c-1.135,0.673-2.314,1.315-3.617,1.715  c-1.313,0.397-2.66,0.614-4.119,0.612c-1.411,0.008-2.878-0.085-4.289-0.467c-1.419-0.37-2.744-1.061-4.053-1.849  c-1.304-0.792-2.657-1.581-4.123-2.034c-1.446-0.461-2.994-0.657-4.429-0.66c-1.482,0.004-2.927,0.124-4.309,0.497  c-1.382,0.364-2.642,1.004-3.792,1.695c-1.153,0.69-2.246,1.386-3.4,1.873c-1.146,0.492-2.339,0.805-3.505,0.927  c-2.358,0.276-4.593,0.14-6.524-0.459c-1.947-0.564-3.473-1.648-4.894-2.411c-1.413-0.794-2.743-1.265-3.858-1.491  c-0.556-0.128-1.057-0.191-1.493-0.228c-0.434-0.059-0.805-0.07-1.106-0.072c-0.601-0.014-0.917-0.021-0.917-0.021  s0.32,0.016,0.929,0.044C4.888,39.987,5.263,40.012,5.699,40.081z"/><text x="0" y="115" fill="#000000" font-size="5px" font-weight="bold" font-family="'Helvetica Neue', Helvetica, Arial-Unicode, Arial, Sans-serif">Created by Srinivas Agra</text><text x="0" y="120" fill="#000000" font-size="5px" font-weight="bold" font-family="'Helvetica Neue', Helvetica, Arial-Unicode, Arial, Sans-serif">from the Noun Project</text></svg>